<svg width="40" height="40" viewBox="0 0 40 40" fill="none" xmlns="http://www.w3.org/2000/svg">
<rect width="40" height="40" rx="20" fill="#DBEAFE" fill-opacity="0.3"/>
<path d="M28.2303 19.0785C28.2019 18.9583 28.1443 18.8469 28.0625 18.7544C27.9807 18.6618 27.8774 18.5908 27.7616 18.5478L22.3607 16.5219L23.735 9.64721C23.7662 9.48748 23.7445 9.32197 23.6733 9.17564C23.6021 9.0293 23.4852 8.9101 23.3403 8.83602C23.1954 8.76193 23.0304 8.73698 22.8701 8.76493C22.7097 8.79288 22.5629 8.87222 22.4516 8.99096L11.9516 20.241C11.8663 20.3308 11.8046 20.4404 11.772 20.5599C11.7394 20.6795 11.737 20.8052 11.7648 20.9259C11.7927 21.0466 11.85 21.1585 11.9317 21.2517C12.0133 21.3448 12.1168 21.4163 12.2328 21.4597L17.6357 23.4857L16.265 30.3528C16.2339 30.5126 16.2556 30.6781 16.3268 30.8244C16.398 30.9708 16.5149 31.09 16.6597 31.164C16.8046 31.2381 16.9697 31.2631 17.13 31.2351C17.2903 31.2072 17.4372 31.1278 17.5485 31.0091L28.0485 19.7591C28.1322 19.6692 28.1926 19.5601 28.2243 19.4415C28.256 19.3228 28.2581 19.1981 28.2303 19.0785ZM18.2535 28.0625L19.235 23.1519C19.2702 22.9777 19.2423 22.7968 19.1565 22.6412C19.0706 22.4857 18.9324 22.3656 18.7663 22.3025L13.8125 20.4416L21.7457 11.9422L20.765 16.8528C20.7299 17.027 20.7577 17.208 20.8436 17.3635C20.9294 17.5191 21.0677 17.6391 21.2338 17.7022L26.1838 19.5585L18.2535 28.0625Z" fill="#1E40AF"/>
</svg>
