<svg width="40" height="40" viewBox="0 0 40 40" fill="none" xmlns="http://www.w3.org/2000/svg">
<rect width="40" height="40" rx="20" fill="#E0F2FE" fill-opacity="0.48"/>
<path d="M20.0248 10C21.3748 10 22.4292 10.5083 23.1878 11.525C23.9465 12.5417 24.5922 13.7 25.1248 15C25.5582 16.05 25.9748 17.2167 26.3748 18.5C26.7748 19.7833 27.1998 21.075 27.6498 22.375C28.0832 23.625 28.5582 24.8 29.0748 25.9C29.5915 27 30.1915 27.9417 30.8748 28.725C31.0082 28.875 31.0665 29.05 31.0498 29.25C31.0332 29.45 30.9582 29.625 30.8248 29.775C30.6915 29.925 30.5332 30.0083 30.3498 30.025C30.1665 30.0417 29.9832 29.9833 29.7998 29.85C28.4832 28.8167 27.3998 27.6623 26.5498 26.387C25.6998 25.1117 24.8415 23.9993 23.9748 23.05C23.4082 22.4167 22.8042 21.9167 22.1628 21.55C21.5215 21.1833 20.8088 21 20.0248 21C19.2408 21 18.5285 21.1833 17.8878 21.55C17.2472 21.9167 16.6428 22.4167 16.0748 23.05C15.2082 24 14.3498 25.1127 13.4998 26.388C12.6498 27.6633 11.5665 28.8173 10.2498 29.85C10.0665 29.9833 9.88318 30.0417 9.69985 30.025C9.51651 30.0083 9.35818 29.925 9.22485 29.775C9.09151 29.625 9.01651 29.45 8.99985 29.25C8.98318 29.05 9.04151 28.875 9.17485 28.725C9.85818 27.9417 10.4582 27 10.9748 25.9C11.4915 24.8 11.9665 23.625 12.3998 22.375C12.8498 21.075 13.2748 19.7833 13.6748 18.5C14.0748 17.2167 14.4915 16.05 14.9248 15C15.4582 13.7 16.1042 12.5417 16.8628 11.525C17.6215 10.5083 18.6755 10 20.0248 10Z" fill="#0EA5E9"/>
</svg>
