<svg width="32" height="24" viewBox="0 0 32 24" fill="none" xmlns="http://www.w3.org/2000/svg">
<path d="M8.9625 24C7.8375 24 6.85625 23.6437 6.01875 22.9312C5.18125 22.2188 4.6875 21.3 4.5375 20.175C3.5875 19.675 2.8375 18.9625 2.2875 18.0375C1.7375 17.1125 1.4625 16.1 1.4625 15C1.4625 13.675 1.84375 12.4938 2.60625 11.4563C3.36875 10.4187 4.3875 9.7 5.6625 9.3L2.9625 6.6L2.5125 7.05C2.2375 7.325 1.8875 7.4625 1.4625 7.4625C1.0375 7.4625 0.6875 7.325 0.4125 7.05C0.1375 6.775 0 6.425 0 6C0 5.575 0.1375 5.225 0.4125 4.95L3.4125 1.95C3.6875 1.675 4.0375 1.5375 4.4625 1.5375C4.8875 1.5375 5.2375 1.675 5.5125 1.95C5.7875 2.225 5.925 2.575 5.925 3C5.925 3.425 5.7875 3.775 5.5125 4.05L5.0625 4.5L7.1625 6.6L8.3625 3.075C8.6625 2.15 9.20625 1.40625 9.99375 0.84375C10.7812 0.28125 11.6625 0 12.6375 0H20.2875C21.2625 0 22.1437 0.28125 22.9312 0.84375C23.7188 1.40625 24.2625 2.15 24.5625 3.075L26.5875 9.15C28.0125 9.425 29.1812 10.1125 30.0938 11.2125C31.0063 12.3125 31.4625 13.575 31.4625 15C31.4625 16.1 31.1875 17.1125 30.6375 18.0375C30.0875 18.9625 29.3375 19.675 28.3875 20.175C28.2375 21.3 27.7437 22.2188 26.9062 22.9312C26.0688 23.6437 25.0875 24 23.9625 24C23.0125 24 22.1562 23.725 21.3937 23.175C20.6312 22.625 20.0875 21.9 19.7625 21H13.1625C12.8375 21.9 12.2937 22.625 11.5312 23.175C10.7688 23.725 9.9125 24 8.9625 24ZM9.5625 9H14.9625V3H12.6375C12.3125 3 12.025 3.09375 11.775 3.28125C11.525 3.46875 11.3375 3.725 11.2125 4.05L9.5625 9ZM17.9625 9H23.3625L21.7125 4.05C21.5875 3.725 21.4 3.46875 21.15 3.28125C20.9 3.09375 20.6125 3 20.2875 3H17.9625V9ZM13.1625 18H19.7625C20.0875 17.1 20.6312 16.375 21.3937 15.825C22.1562 15.275 23.0125 15 23.9625 15C24.7125 15 25.4125 15.175 26.0625 15.525C26.7125 15.875 27.2625 16.35 27.7125 16.95C27.9375 16.675 28.1187 16.3687 28.2563 16.0312C28.3938 15.6938 28.4625 15.35 28.4625 15C28.4625 14.175 28.1687 13.4688 27.5812 12.8813C26.9937 12.2938 26.2875 12 25.4625 12H7.4625C6.6375 12 5.93125 12.2938 5.34375 12.8813C4.75625 13.4688 4.4625 14.175 4.4625 15C4.4625 15.35 4.53125 15.6938 4.66875 16.0312C4.80625 16.3687 4.9875 16.675 5.2125 16.95C5.6625 16.35 6.2125 15.875 6.8625 15.525C7.5125 15.175 8.2125 15 8.9625 15C9.9125 15 10.7688 15.275 11.5312 15.825C12.2937 16.375 12.8375 17.1 13.1625 18ZM8.9625 21C9.3875 21 9.74375 20.8563 10.0312 20.5688C10.3188 20.2812 10.4625 19.925 10.4625 19.5C10.4625 19.075 10.3188 18.7188 10.0312 18.4312C9.74375 18.1437 9.3875 18 8.9625 18C8.5375 18 8.18125 18.1437 7.89375 18.4312C7.60625 18.7188 7.4625 19.075 7.4625 19.5C7.4625 19.925 7.60625 20.2812 7.89375 20.5688C8.18125 20.8563 8.5375 21 8.9625 21ZM23.9625 21C24.3875 21 24.7437 20.8563 25.0312 20.5688C25.3188 20.2812 25.4625 19.925 25.4625 19.5C25.4625 19.075 25.3188 18.7188 25.0312 18.4312C24.7437 18.1437 24.3875 18 23.9625 18C23.5375 18 23.1812 18.1437 22.8937 18.4312C22.6062 18.7188 22.4625 19.075 22.4625 19.5C22.4625 19.925 22.6062 20.2812 22.8937 20.5688C23.1812 20.8563 23.5375 21 23.9625 21Z" fill="#6F5900"/>
</svg>
