<svg width="40" height="40" viewBox="0 0 40 40" fill="none" xmlns="http://www.w3.org/2000/svg">
<rect width="40" height="40" rx="20" fill="#F1F5F9" fill-opacity="0.3"/>
<path d="M27.4669 16.694L27.7129 16.128C28.1454 15.1267 28.9375 14.3239 29.9329 13.878L30.6919 13.539C30.784 13.4966 30.862 13.4288 30.9166 13.3434C30.9713 13.2581 31.0004 13.1588 31.0004 13.0575C31.0004 12.9561 30.9713 12.8569 30.9166 12.7716C30.862 12.6862 30.784 12.6183 30.6919 12.576L29.9749 12.257C28.9545 11.7984 28.1488 10.9659 27.7239 9.93098L27.4709 9.31998C27.4337 9.22534 27.3689 9.14408 27.2849 9.08681C27.2009 9.02953 27.1016 8.9989 26.9999 8.9989C26.8982 8.9989 26.7989 9.02953 26.7149 9.08681C26.6309 9.14408 26.566 9.22534 26.5289 9.31998L26.2759 9.92998C25.8514 10.9651 25.0461 11.7979 24.0259 12.257L23.3079 12.577C23.2161 12.6195 23.1384 12.6873 23.0839 12.7726C23.0294 12.8578 23.0005 12.9568 23.0005 13.058C23.0005 13.1591 23.0294 13.2582 23.0839 13.3434C23.1384 13.4286 23.2161 13.4965 23.3079 13.539L24.0679 13.877C25.0631 14.3233 25.8548 15.1265 26.2869 16.128L26.5329 16.694C26.7129 17.108 27.2859 17.108 27.4669 16.694ZM12.9999 14C12.8446 14 12.6915 14.0361 12.5527 14.1056C12.4138 14.175 12.293 14.2758 12.1999 14.4L9.19988 18.4C9.06091 18.5854 8.99061 18.8132 9.00101 19.0447C9.0114 19.2761 9.10185 19.4968 9.25688 19.669L18.2569 29.669C18.3507 29.7731 18.4652 29.8563 18.5932 29.9133C18.7212 29.9703 18.8598 29.9997 18.9999 29.9997C19.14 29.9997 19.2785 29.9703 19.4065 29.9133C19.5345 29.8563 19.6491 29.7731 19.7429 29.669L28.7429 19.669L27.2569 18.331L18.9999 27.505L11.2929 18.942L13.4999 16H21.9999V14H12.9999Z" fill="#475569"/>
</svg>
