<svg width="20" height="20" viewBox="0 0 20 20" fill="none" xmlns="http://www.w3.org/2000/svg">
<path d="M19.407 8.06828C19.2244 7.9902 19.0224 7.96942 18.8277 8.00871C18.6331 8.048 18.455 8.14549 18.317 8.28828L18.097 8.50828C17.687 8.91828 17.267 9.22828 16.857 9.43828C15.157 10.2883 13.167 10.1483 11.657 9.10828C12.2018 8.48691 12.5991 7.75037 12.819 6.95378C13.0389 6.15718 13.0758 5.32116 12.927 4.50828C12.537 2.32828 10.837 0.568277 8.68697 0.118277C7.02697 -0.221723 5.33697 0.178277 4.04697 1.22828C3.4728 1.69541 2.99883 2.27363 2.65345 2.92831C2.30807 3.58298 2.09839 4.30064 2.03697 5.03828L2.00697 4.99828H0.00697253C0.00697253 4.99828 0.00697255 7.71828 2.60697 7.96828C2.74697 8.23828 2.90697 8.49828 3.08697 8.74828C2.06665 9.31622 1.23389 10.1691 0.690456 11.2027C0.147026 12.2363 -0.0835284 13.4058 0.0269725 14.5683C0.306973 17.6083 3.02697 19.9983 6.20697 19.9983H12.307C16.687 19.9983 19.997 16.9883 19.997 12.9983V8.99828C19.997 8.59828 19.757 8.22828 19.377 8.07828L19.407 8.06828ZM18.027 12.9883C18.027 15.8883 15.637 17.9883 12.337 17.9883H6.23697C4.07697 17.9883 2.23697 16.3983 2.04697 14.3783C1.88697 12.6583 2.83697 11.0283 4.41697 10.3283C4.69697 10.2083 4.97697 10.0483 5.29697 9.83828C5.56697 9.65828 5.73697 9.36828 5.74697 9.04828C5.75697 8.72828 5.61697 8.41828 5.36697 8.21828C4.51697 7.54828 4.02697 6.54828 4.02697 5.48828C4.02697 4.42828 4.49697 3.43828 5.31697 2.76828C5.94697 2.24828 6.71697 1.98828 7.51697 1.98828C7.76697 1.98828 8.02697 2.01828 8.28697 2.06828C9.62697 2.34828 10.727 3.48828 10.967 4.84828C11.207 6.18828 10.667 7.51828 9.56697 8.31828C9.44896 8.40212 9.35098 8.51107 9.28009 8.63729C9.2092 8.76351 9.16715 8.90387 9.15697 9.04828C9.13697 9.33828 9.23697 9.62828 9.44697 9.83828L9.54697 9.93828C11.697 12.0883 14.997 12.6083 17.757 11.2283C17.847 11.1883 17.937 11.1383 18.027 11.0883V13.0083V12.9883Z" fill="#6F5900"/>
</svg>
