<svg width="24" height="24" viewBox="0 0 24 24" fill="none" xmlns="http://www.w3.org/2000/svg">
<path d="M21.38 10.08C21.1974 10.0019 20.9954 9.98114 20.8008 10.0204C20.6061 10.0597 20.428 10.1572 20.29 10.3L20.07 10.52C19.66 10.93 19.24 11.24 18.83 11.45C17.13 12.3 15.14 12.16 13.63 11.12C14.1748 10.4986 14.5721 9.76209 14.792 8.9655C15.0119 8.1689 15.0489 7.33288 14.9 6.52C14.51 4.34 12.81 2.58 10.66 2.13C9 1.79 7.30999 2.19 6.01999 3.24C5.44582 3.70713 4.97185 4.28535 4.62647 4.94003C4.28109 5.5947 4.07141 6.31236 4.01 7.05L3.98 7.01H1.97999C1.97999 7.01 1.98 9.73 4.57999 9.98C4.72 10.25 4.87999 10.51 5.05999 10.76C4.03968 11.3279 3.20691 12.1808 2.66348 13.2144C2.12005 14.248 1.88949 15.4175 1.99999 16.58C2.27999 19.62 4.99999 22.01 8.18 22.01H14.28C18.66 22.01 21.97 19 21.97 15.01V11.01C21.97 10.61 21.73 10.24 21.35 10.09L21.38 10.08ZM20 15C20 17.9 17.61 20 14.31 20H8.20999C6.04999 20 4.21 18.41 4.01999 16.39C3.86 14.67 4.80999 13.04 6.38999 12.34C6.66999 12.22 6.94999 12.06 7.26999 11.85C7.53999 11.67 7.70999 11.38 7.71999 11.06C7.72999 10.74 7.58999 10.43 7.33999 10.23C6.49 9.55999 5.99999 8.56 5.99999 7.5C5.99999 6.44 6.46999 5.45 7.28999 4.78C7.91999 4.26 8.68999 4 9.48999 4C9.73999 4 10 4.03 10.26 4.08C11.6 4.36 12.7 5.5 12.94 6.86C13.18 8.2 12.64 9.52999 11.54 10.33C11.422 10.4138 11.324 10.5228 11.2531 10.649C11.1822 10.7752 11.1402 10.9156 11.13 11.06C11.11 11.35 11.21 11.64 11.42 11.85L11.52 11.95C13.67 14.1 16.97 14.62 19.73 13.24C19.82 13.2 19.91 13.15 20 13.1V15.02V15Z" fill="#6F5900"/>
<path d="M9 6C8.73478 6 8.48043 6.10536 8.29289 6.29289C8.10536 6.48043 8 6.73478 8 7C8 7.26522 8.10536 7.51957 8.29289 7.70711C8.48043 7.89464 8.73478 8 9 8C9.26522 8 9.51957 7.89464 9.70711 7.70711C9.89464 7.51957 10 7.26522 10 7C10 6.73478 9.89464 6.48043 9.70711 6.29289C9.51957 6.10536 9.26522 6 9 6Z" fill="#6F5900"/>
</svg>
