<svg width="48" height="48" viewBox="0 0 48 48" fill="none" xmlns="http://www.w3.org/2000/svg">
<rect width="48" height="48" rx="24" fill="#FED000"/>
<path d="M17.9023 30.0962C17.1523 29.3462 16.5648 28.4795 16.1398 27.4962C15.7148 26.5129 15.5023 25.4962 15.5023 24.4462C15.5023 23.3962 15.7023 22.3587 16.1023 21.3337C16.5023 20.3087 17.1523 19.3462 18.0523 18.4462C18.6356 17.8629 19.3564 17.3629 20.2148 16.9462C21.0731 16.5295 22.0898 16.2004 23.2648 15.9587C24.4398 15.717 25.7814 15.5712 27.2898 15.5212C28.7981 15.4712 30.4856 15.5295 32.3523 15.6962C32.4856 17.4629 32.5273 19.0879 32.4773 20.5712C32.4273 22.0545 32.2898 23.392 32.0648 24.5837C31.8398 25.7754 31.5231 26.817 31.1148 27.7087C30.7064 28.6004 30.2023 29.3462 29.6023 29.9462C28.7189 30.8295 27.7814 31.4754 26.7898 31.8837C25.7981 32.292 24.7856 32.4962 23.7523 32.4962C22.6689 32.4962 21.6106 32.2837 20.5773 31.8587C19.5439 31.4337 18.6523 30.8462 17.9023 30.0962ZM20.7023 29.6962C21.1856 29.9795 21.6814 30.1837 22.1898 30.3087C22.6981 30.4337 23.2189 30.4962 23.7523 30.4962C24.5189 30.4962 25.2773 30.342 26.0273 30.0337C26.7773 29.7254 27.4939 29.2295 28.1773 28.5462C28.4773 28.2462 28.7814 27.8254 29.0898 27.2837C29.3981 26.742 29.6648 26.0337 29.8898 25.1587C30.1148 24.2837 30.2856 23.2254 30.4023 21.9837C30.5189 20.742 30.5356 19.2629 30.4523 17.5462C29.6356 17.5129 28.7148 17.5004 27.6898 17.5087C26.6648 17.517 25.6439 17.5962 24.6273 17.7462C23.6106 17.8962 22.6439 18.1379 21.7273 18.4712C20.8106 18.8045 20.0606 19.2629 19.4773 19.8462C18.7273 20.5962 18.2106 21.3379 17.9273 22.0712C17.6439 22.8045 17.5023 23.5129 17.5023 24.1962C17.5023 25.1795 17.6898 26.042 18.0648 26.7837C18.4398 27.5254 18.7689 28.0462 19.0523 28.3462C19.7523 27.0129 20.6773 25.7337 21.8273 24.5087C22.9773 23.2837 24.3189 22.2795 25.8523 21.4962C24.6523 22.5462 23.6064 23.7337 22.7148 25.0587C21.8231 26.3837 21.1523 27.9295 20.7023 29.6962Z" fill="#594700"/>
</svg>
