<svg width="40" height="40" viewBox="0 0 40 40" fill="none" xmlns="http://www.w3.org/2000/svg">
<rect width="40" height="40" rx="20" fill="#FEE2E2" fill-opacity="0.3"/>
<path d="M22.608 11.168C23.344 11.152 23.92 11.152 24.512 11.152C26.816 11.2 28.144 11.456 28.64 12.336C29.392 13.648 27.952 14.928 24.352 16.72C23.2 17.296 22.384 17.744 21.84 18.112C21.76 18.16 21.68 18.208 21.616 18.256C21.76 18.288 21.92 18.336 22.112 18.368L23.008 18.528L24 18.736C26.544 19.344 28 20.368 28 22.4V28.8H20V22.4H26.4C26.4 21.36 25.52 20.752 23.632 20.304C23.36 20.24 23.072 20.176 22.704 20.112C22.608 20.096 21.984 19.968 21.808 19.936C21.152 19.808 20.768 19.712 20.448 19.552C19.824 19.264 19.456 18.736 19.696 18.048C19.968 17.296 21.104 16.56 23.648 15.28C25.2 14.496 26.256 13.856 26.832 13.36C27.104 13.12 27.168 13.04 27.216 13.072L27.232 13.104C27.024 12.976 25.952 12.784 24.48 12.752C23.856 12.736 23.232 12.752 22.368 12.768C22.064 12.784 21.856 12.784 21.712 12.8C20.176 15.04 15.6 21.392 8 31.872C14.272 17.808 17.632 10.384 18.112 9.56804C18.816 8.33604 20.208 7.52004 21.6 8.32004C22.704 8.96004 22.912 10.112 22.608 11.168ZM17.6 29.6V21.6C17.6 21.152 17.952 20.8 18.4 20.8C18.848 20.8 19.2 21.152 19.2 21.6V29.6C19.2 30.048 18.848 30.4 18.4 30.4C17.952 30.4 17.6 30.048 17.6 29.6ZM28.8 29.6V21.6C28.8 21.152 29.152 20.8 29.6 20.8C30.048 20.8 30.4 21.152 30.4 21.6V29.6C30.4 30.048 30.048 30.4 29.6 30.4C29.152 30.4 28.8 30.048 28.8 29.6ZM19.488 13.568L21.088 10.8C21.312 10.416 21.184 9.92004 20.8 9.69604C20.6149 9.59452 20.3974 9.56949 20.194 9.62631C19.9907 9.68312 19.8177 9.81727 19.712 10L18.112 12.768C17.888 13.152 18.016 13.632 18.4 13.856C18.784 14.08 19.264 13.952 19.488 13.568Z" fill="#DC2626"/>
</svg>
