<svg width="40" height="40" viewBox="0 0 40 40" fill="none" xmlns="http://www.w3.org/2000/svg">
<rect width="40" height="40" rx="20" fill="#FEF3C7" fill-opacity="0.3"/>
<path d="M30.8751 18.5C30.8733 17.0087 30.2801 15.579 29.2256 14.5244C28.1711 13.4699 26.7414 12.8767 25.2501 12.875C25.1563 12.875 25.0672 12.875 24.9763 12.8825C24.4988 11.9764 23.7829 11.2179 22.906 10.6888C22.029 10.1596 21.0243 9.88 20.0001 9.88C18.9758 9.88 17.9711 10.1596 17.0941 10.6888C16.2172 11.2179 15.5013 11.9764 15.0238 12.8825C14.9376 12.875 14.8438 12.875 14.7501 12.875C13.4956 12.8776 12.278 13.2995 11.2908 14.0735C10.3036 14.8476 9.60356 15.9294 9.30184 17.1471C9.00012 18.3647 9.11409 19.6483 9.62564 20.7937C10.1372 21.9392 11.0169 22.8807 12.1251 23.4687V27.5C12.1251 27.9973 12.3226 28.4742 12.6742 28.8258C13.0259 29.1775 13.5028 29.375 14.0001 29.375H26.0001C26.4973 29.375 26.9742 29.1775 27.3259 28.8258C27.6775 28.4742 27.8751 27.9973 27.8751 27.5V23.4687C28.7796 22.9915 29.5368 22.2767 30.0654 21.4012C30.594 20.5257 30.8739 19.5227 30.8751 18.5ZM25.6251 27.125H14.3751V24.1109C14.4988 24.1194 14.6235 24.125 14.7501 24.125H25.2501C25.3766 24.125 25.5013 24.1194 25.6251 24.1109V27.125ZM25.2501 21.875H24.441L24.8413 20.2728C24.9079 19.9854 24.859 19.6833 24.7051 19.4316C24.5511 19.18 24.3044 18.9988 24.0182 18.9273C23.732 18.8557 23.4291 18.8995 23.1749 19.0491C22.9206 19.1987 22.7353 19.4422 22.6588 19.7272L22.1216 21.875H21.1251V20C21.1251 19.7016 21.0065 19.4155 20.7955 19.2045C20.5846 18.9935 20.2984 18.875 20.0001 18.875C19.7017 18.875 19.4155 18.9935 19.2046 19.2045C18.9936 19.4155 18.8751 19.7016 18.8751 20V21.875H17.8785L17.3413 19.7272C17.3076 19.5817 17.2452 19.4444 17.1578 19.3232C17.0705 19.2021 16.9598 19.0995 16.8324 19.0216C16.705 18.9437 16.5634 18.8919 16.4157 18.8693C16.2681 18.8466 16.1174 18.8537 15.9725 18.8899C15.8276 18.9261 15.6914 18.9908 15.5718 19.0803C15.4521 19.1697 15.3515 19.282 15.2758 19.4108C15.2 19.5395 15.1507 19.682 15.1306 19.83C15.1105 19.978 15.1201 20.1286 15.1588 20.2728L15.5591 21.875H14.7501C13.8866 21.8747 13.0561 21.5435 12.4294 20.9495C11.8028 20.3555 11.4276 19.5439 11.3811 18.6817C11.3347 17.8195 11.6204 16.9723 12.1796 16.3143C12.7388 15.6564 13.5288 15.2378 14.3872 15.1447C14.3797 15.2628 14.3751 15.3809 14.3751 15.5C14.3751 15.7984 14.4936 16.0845 14.7046 16.2955C14.9155 16.5065 15.2017 16.625 15.5001 16.625C15.7984 16.625 16.0846 16.5065 16.2955 16.2955C16.5065 16.0845 16.6251 15.7984 16.6251 15.5C16.6251 14.6049 16.9806 13.7464 17.6136 13.1135C18.2465 12.4806 19.1049 12.125 20.0001 12.125C20.8952 12.125 21.7536 12.4806 22.3865 13.1135C23.0195 13.7464 23.3751 14.6049 23.3751 15.5C23.3751 15.7984 23.4936 16.0845 23.7046 16.2955C23.9155 16.5065 24.2017 16.625 24.5001 16.625C24.7984 16.625 25.0846 16.5065 25.2955 16.2955C25.5065 16.0845 25.6251 15.7984 25.6251 15.5C25.6251 15.3809 25.6204 15.2628 25.6129 15.1447C26.4713 15.2378 27.2614 15.6564 27.8205 16.3143C28.3797 16.9723 28.6654 17.8195 28.619 18.6817C28.5725 19.5439 28.1973 20.3555 27.5707 20.9495C26.944 21.5435 26.1135 21.8747 25.2501 21.875Z" fill="#D97706"/>
</svg>
