<svg width="40" height="40" viewBox="0 0 40 40" fill="none" xmlns="http://www.w3.org/2000/svg">
<rect width="40" height="40" rx="20" fill="#F3E8FF" fill-opacity="0.3"/>
<path d="M31.0464 19.4028C30.9508 19.2347 30.8226 19.0874 30.6693 18.9694C30.5161 18.8514 30.3409 18.7651 30.1539 18.7156C29.4757 18.541 28.7748 18.4709 28.0755 18.5075C28.4505 16.6466 28.1692 15.1747 27.8824 14.3019C27.768 13.9433 27.5242 13.6402 27.1986 13.4517C26.8729 13.2631 26.4887 13.2026 26.1208 13.2819C25.1668 13.4943 24.2597 13.8794 23.4442 14.4181C22.8469 13.1981 21.9774 12.1317 20.9027 11.3009C20.6422 11.1056 20.3254 11 19.9999 11C19.6743 11 19.3575 11.1056 19.097 11.3009C18.0221 12.1314 17.1525 13.198 16.5555 14.4181C15.74 13.8794 14.8329 13.4943 13.8789 13.2819C13.511 13.2026 13.1268 13.2631 12.8011 13.4517C12.4755 13.6402 12.2317 13.9433 12.1174 14.3019C11.8361 15.1747 11.5549 16.6456 11.9242 18.5075C11.2249 18.4709 10.524 18.541 9.84579 18.7156C9.65884 18.7651 9.48363 18.8514 9.3304 18.9694C9.17716 19.0874 9.04896 19.2347 8.95329 19.4028C8.85317 19.575 8.78835 19.7654 8.76259 19.9629C8.73684 20.1604 8.75068 20.361 8.80329 20.5531C9.12111 21.7316 10.097 23.9731 13.053 25.7394C16.0089 27.5056 18.6058 27.5 20.0045 27.5C21.4033 27.5 24.0049 27.5 26.942 25.7394C29.898 23.9731 30.8739 21.7316 31.1917 20.5531C31.245 20.3613 31.2597 20.1609 31.2347 19.9634C31.2098 19.7659 31.1458 19.5753 31.0464 19.4028ZM13.5442 14.7631C13.5454 14.7585 13.5482 14.7544 13.5522 14.7518C13.5562 14.7492 13.5611 14.7482 13.5658 14.7491C14.4382 14.946 15.2614 15.3183 15.9855 15.8431C15.6558 16.9218 15.4921 18.0443 15.4999 19.1722C15.4999 20.9291 15.8533 22.3597 16.3539 23.5109C15.6422 22.7986 15.0264 21.9965 14.522 21.125C12.8327 18.1831 13.1842 15.875 13.5442 14.7631ZM13.8255 24.4522C11.3252 22.9597 10.5142 21.1297 10.2499 20.1594C10.9397 19.9895 11.6555 19.9523 12.3592 20.0497C12.5941 20.679 12.8811 21.2877 13.217 21.8694C14.0419 23.2915 15.1226 24.5488 16.4045 25.5781C15.4981 25.3174 14.6297 24.9389 13.8217 24.4522H13.8255ZM19.9999 25.85C19.1252 25.1994 16.9999 23.2034 16.9999 19.1722C16.9999 15.1906 19.098 13.1787 19.9999 12.5C20.9017 13.1806 22.9999 15.1925 22.9999 19.1741C22.9999 23.2034 20.8745 25.1994 19.9999 25.85ZM24.0142 15.8431C24.7384 15.3186 25.5616 14.9467 26.4339 14.75C26.4386 14.7491 26.4435 14.7501 26.4475 14.7527C26.4515 14.7554 26.4544 14.7594 26.4555 14.7641C26.8155 15.875 27.167 18.1831 25.4777 21.125C24.9738 21.9977 24.3579 22.8008 23.6458 23.5137C24.1464 22.3644 24.4999 20.9319 24.4999 19.175C24.5079 18.0462 24.3442 16.9227 24.0142 15.8431ZM29.7499 20.1613C29.4902 21.1222 28.6811 22.9559 26.1789 24.4522C25.3709 24.9385 24.5025 25.3168 23.5961 25.5772C24.8781 24.5479 25.9587 23.2905 26.7836 21.8684C27.1196 21.2868 27.4065 20.6781 27.6414 20.0488C28.3449 19.9518 29.0605 19.9897 29.7499 20.1603V20.1613Z" fill="#7E22CE"/>
</svg>
