<svg width="40" height="40" viewBox="0 0 40 40" fill="none" xmlns="http://www.w3.org/2000/svg">
<rect width="40" height="40" rx="20" fill="white"/>
<path d="M13.9023 26.0962C13.1523 25.3462 12.5648 24.4795 12.1398 23.4962C11.7148 22.5129 11.5023 21.4962 11.5023 20.4462C11.5023 19.3962 11.7023 18.3587 12.1023 17.3337C12.5023 16.3087 13.1523 15.3462 14.0523 14.4462C14.6357 13.8629 15.3565 13.3629 16.2148 12.9462C17.0732 12.5295 18.0898 12.2004 19.2648 11.9587C20.4398 11.717 21.7815 11.5712 23.2898 11.5212C24.7982 11.4712 26.4857 11.5295 28.3523 11.6962C28.4857 13.4629 28.5273 15.0879 28.4773 16.5712C28.4273 18.0545 28.2898 19.392 28.0648 20.5837C27.8398 21.7754 27.5232 22.817 27.1148 23.7087C26.7065 24.6004 26.2023 25.3462 25.6023 25.9462C24.719 26.8295 23.7815 27.4754 22.7898 27.8837C21.7982 28.292 20.7857 28.4962 19.7523 28.4962C18.669 28.4962 17.6107 28.2837 16.5773 27.8587C15.544 27.4337 14.6523 26.8462 13.9023 26.0962ZM16.7023 25.6962C17.1857 25.9795 17.6815 26.1837 18.1898 26.3087C18.6982 26.4337 19.219 26.4962 19.7523 26.4962C20.519 26.4962 21.2773 26.342 22.0273 26.0337C22.7773 25.7254 23.494 25.2295 24.1773 24.5462C24.4773 24.2462 24.7815 23.8254 25.0898 23.2837C25.3982 22.742 25.6648 22.0337 25.8898 21.1587C26.1148 20.2837 26.2857 19.2254 26.4023 17.9837C26.519 16.742 26.5357 15.2629 26.4523 13.5462C25.6357 13.5129 24.7148 13.5004 23.6898 13.5087C22.6648 13.517 21.644 13.5962 20.6273 13.7462C19.6107 13.8962 18.644 14.1379 17.7273 14.4712C16.8107 14.8045 16.0607 15.2629 15.4773 15.8462C14.7273 16.5962 14.2107 17.3379 13.9273 18.0712C13.644 18.8045 13.5023 19.5129 13.5023 20.1962C13.5023 21.1795 13.6898 22.042 14.0648 22.7837C14.4398 23.5254 14.769 24.0462 15.0523 24.3462C15.7523 23.0129 16.6773 21.7337 17.8273 20.5087C18.9773 19.2837 20.319 18.2795 21.8523 17.4962C20.6523 18.5462 19.6065 19.7337 18.7148 21.0587C17.8232 22.3837 17.1523 23.9295 16.7023 25.6962Z" fill="#735C00"/>
</svg>
