<svg width="40" height="40" viewBox="0 0 40 40" fill="none" xmlns="http://www.w3.org/2000/svg">
<rect width="40" height="40" rx="20" fill="#ECFDF5" fill-opacity="0.3"/>
<path fill-rule="evenodd" clip-rule="evenodd" d="M21.8948 9.39001C24.4536 8.43302 27.1968 8.07104 29.9163 8.33151C30.3675 8.37432 30.7896 8.57318 31.11 8.8938C31.4304 9.21443 31.6288 9.63676 31.6713 10.088C32.1718 15.389 30.2473 20.765 26.4428 24.5305C26.2337 24.7376 25.9677 24.8778 25.6788 24.9335C25.3633 24.994 24.4838 25.1605 23.4818 25.313C23.8003 25.963 23.6453 26.816 22.9038 27.2515C20.4673 28.6815 17.1628 29.703 13.8573 29.703C13.592 29.703 13.3377 29.5977 13.1502 29.4101C12.9626 29.2226 12.8573 28.9682 12.8573 28.703C12.8573 28.4378 12.9626 28.1834 13.1502 27.9959C13.3377 27.8084 13.592 27.703 13.8573 27.703C16.4143 27.703 18.9953 27.0045 21.0413 25.986L20.0688 25.503C19.8669 25.4027 19.7048 25.237 19.6089 25.033C19.5129 24.8289 19.4888 24.5985 19.5403 24.379C19.5918 24.1595 19.716 23.9638 19.8927 23.8238C20.0694 23.6837 20.2883 23.6075 20.5138 23.6075C21.7968 23.6075 24.2658 23.1655 25.1458 22.999C28.4378 19.6745 30.1098 14.9625 29.6843 10.3185C27.3633 10.1035 24.9993 10.397 22.8088 11.185C22.5528 11.819 22.1168 12.9525 22.0088 13.529C21.9727 13.7215 21.8809 13.8992 21.7448 14.04C21.6087 14.1808 21.4343 14.2785 21.2431 14.3211C21.0519 14.3636 20.8525 14.3491 20.6695 14.2793C20.4865 14.2095 20.328 14.0876 20.2138 13.9285L19.4498 12.865C15.9218 15.1615 13.3798 18.625 12.5718 23.1925C13.5573 22.0225 14.6145 20.9147 15.7373 19.8755C19.0073 16.8355 22.7873 14.294 26.1738 12.47C26.3931 12.3486 26.6501 12.3139 26.8938 12.373C27.0215 12.4037 27.1419 12.4594 27.2481 12.5368C27.3543 12.6141 27.4442 12.7117 27.5125 12.8239C27.5809 12.9361 27.6265 13.0607 27.6466 13.1905C27.6667 13.3204 27.661 13.4529 27.6298 13.5805C27.5706 13.8241 27.4222 14.0367 27.2138 14.176C20.6198 18.696 14.0418 24.4975 10.1238 31.237C10.0079 31.4449 9.82179 31.6046 9.59876 31.6875C9.42173 31.754 9.2294 31.7687 9.04433 31.7298C8.85925 31.6909 8.68908 31.6001 8.55376 31.468C8.44716 31.3646 8.36492 31.2388 8.31303 31.0996C8.26113 30.9604 8.24089 30.8115 8.25376 30.6635C8.2611 30.5768 8.2801 30.4912 8.31076 30.4065C8.79976 28.9935 9.47826 27.624 10.2983 26.3085C10.3273 19.2635 13.7213 14.0285 18.7963 10.912C19.0897 10.7321 19.4361 10.6587 19.7773 10.7039C20.1186 10.7491 20.4338 10.9104 20.6703 11.1605C20.7903 10.8434 20.915 10.528 21.0443 10.2145C21.1218 10.026 21.2372 9.85552 21.3834 9.71359C21.5297 9.57166 21.7036 9.46135 21.8943 9.38951" fill="#059669"/>
</svg>
