<svg width="40" height="40" viewBox="0 0 40 40" fill="none" xmlns="http://www.w3.org/2000/svg">
<rect width="40" height="40" rx="20" fill="#E24646" fill-opacity="0.29"/>
<path d="M30.8002 21.2C30.7212 22.6374 30.2986 24.0349 29.5678 25.2752C28.837 26.5155 27.8193 27.5624 26.6002 28.328L20.0002 32L13.4002 28.328C12.1811 27.5624 11.1634 26.5155 10.4326 25.2752C9.70178 24.0349 9.27916 22.6374 9.2002 21.2V11.6C13.2562 11.6 17.0002 10.256 20.0002 8C23.0002 10.268 26.7442 11.6 30.8002 11.6V21.2ZM20.0002 22.496L23.5042 24.944L22.2682 20.852L25.6762 18.272L21.4042 18.176L20.0002 14.144L18.5962 18.176L14.3242 18.272L17.7202 20.84L16.4842 24.92L20.0002 22.508V22.496Z" fill="#B91C1C"/>
</svg>
