<svg width="40" height="40" viewBox="0 0 40 40" fill="none" xmlns="http://www.w3.org/2000/svg">
<rect width="40" height="40" rx="20" fill="#FED000" fill-opacity="0.3"/>
<path d="M10 28.35V26.4C10.4833 26.4 10.8958 26.325 11.2375 26.175C11.5792 26.025 11.925 25.8625 12.275 25.6875C12.625 25.5125 13.0125 25.3542 13.4375 25.2125C13.8625 25.0709 14.3875 25 15.0125 25C15.6375 25 16.1542 25.0709 16.5625 25.2125C16.9708 25.3542 17.35 25.5125 17.7 25.6875C18.05 25.8625 18.4 26.025 18.75 26.175C19.1 26.325 19.5167 26.4 20 26.4C20.4833 26.4 20.9 26.325 21.25 26.175C21.6 26.025 21.95 25.8625 22.3 25.6875C22.65 25.5125 23.0333 25.3542 23.45 25.2125C23.8667 25.0709 24.3875 25 25.0125 25C25.6375 25 26.1583 25.0709 26.575 25.2125C26.9917 25.3542 27.375 25.5125 27.725 25.6875C28.075 25.8625 28.425 26.025 28.775 26.175C29.125 26.325 29.5333 26.4 30 26.4V28.35C29.3667 28.35 28.8375 28.275 28.4125 28.125C27.9875 27.975 27.6 27.8125 27.25 27.6375C26.9 27.4625 26.5583 27.3042 26.225 27.1625C25.8917 27.0209 25.4833 26.95 25 26.95C24.5333 26.95 24.1292 27.0209 23.7875 27.1625C23.4458 27.3042 23.1042 27.4625 22.7625 27.6375C22.4208 27.8125 22.0375 27.975 21.6125 28.125C21.1875 28.275 20.65 28.35 20 28.35C19.35 28.35 18.8125 28.275 18.3875 28.125C17.9625 27.975 17.5792 27.8125 17.2375 27.6375C16.8958 27.4625 16.5583 27.3042 16.225 27.1625C15.8917 27.0209 15.4875 26.95 15.0125 26.95C14.5375 26.95 14.1292 27.0209 13.7875 27.1625C13.4458 27.3042 13.1 27.4625 12.75 27.6375C12.4 27.8125 12.0125 27.975 11.5875 28.125C11.1625 28.275 10.6333 28.35 10 28.35ZM10 23.9V21.95C10.4833 21.95 10.8958 21.875 11.2375 21.725C11.5792 21.575 11.925 21.4125 12.275 21.2375C12.625 21.0625 13.0125 20.9042 13.4375 20.7625C13.8625 20.6209 14.3875 20.55 15.0125 20.55C15.6375 20.55 16.1542 20.6209 16.5625 20.7625C16.9708 20.9042 17.35 21.0625 17.7 21.2375C18.05 21.4125 18.4 21.575 18.75 21.725C19.1 21.875 19.5167 21.95 20 21.95C20.4833 21.95 20.9 21.875 21.25 21.725C21.6 21.575 21.95 21.4125 22.3 21.2375C22.65 21.0625 23.0333 20.9042 23.45 20.7625C23.8667 20.6209 24.3833 20.55 25 20.55C25.6333 20.55 26.1583 20.6209 26.575 20.7625C26.9917 20.9042 27.375 21.0625 27.725 21.2375C28.075 21.4125 28.425 21.575 28.775 21.725C29.125 21.875 29.5333 21.95 30 21.95V23.9C29.3667 23.9 28.8375 23.825 28.4125 23.675C27.9875 23.525 27.6 23.3625 27.25 23.1875C26.9 23.0125 26.5583 22.8542 26.225 22.7125C25.8917 22.5709 25.4833 22.5 25 22.5C24.5167 22.5 24.1042 22.5709 23.7625 22.7125C23.4208 22.8542 23.0792 23.0125 22.7375 23.1875C22.3958 23.3625 22.0167 23.525 21.6 23.675C21.1833 23.825 20.65 23.9 20 23.9C19.35 23.9 18.8125 23.825 18.3875 23.675C17.9625 23.525 17.5792 23.3625 17.2375 23.1875C16.8958 23.0125 16.5583 22.8542 16.225 22.7125C15.8917 22.5709 15.4875 22.5 15.0125 22.5C14.5375 22.5 14.1292 22.5709 13.7875 22.7125C13.4458 22.8542 13.1 23.0125 12.75 23.1875C12.4 23.3625 12.0125 23.525 11.5875 23.675C11.1625 23.825 10.6333 23.9 10 23.9ZM10 19.45V17.5C10.4833 17.5 10.8958 17.425 11.2375 17.275C11.5792 17.125 11.925 16.9625 12.275 16.7875C12.625 16.6125 13.0125 16.4542 13.4375 16.3125C13.8625 16.1709 14.3875 16.1 15.0125 16.1C15.6375 16.1 16.1542 16.1709 16.5625 16.3125C16.9708 16.4542 17.35 16.6125 17.7 16.7875C18.05 16.9625 18.4 17.125 18.75 17.275C19.1 17.425 19.5167 17.5 20 17.5C20.4833 17.5 20.9 17.425 21.25 17.275C21.6 17.125 21.95 16.9625 22.3 16.7875C22.65 16.6125 23.0333 16.4542 23.45 16.3125C23.8667 16.1709 24.3833 16.1 25 16.1C25.6333 16.1 26.1583 16.1709 26.575 16.3125C26.9917 16.4542 27.375 16.6125 27.725 16.7875C28.075 16.9625 28.425 17.125 28.775 17.275C29.125 17.425 29.5333 17.5 30 17.5V19.45C29.3667 19.45 28.8375 19.375 28.4125 19.225C27.9875 19.075 27.6 18.9125 27.25 18.7375C26.9 18.5625 26.5583 18.4042 26.225 18.2625C25.8917 18.1209 25.4833 18.05 25 18.05C24.5333 18.05 24.1292 18.1209 23.7875 18.2625C23.4458 18.4042 23.1042 18.5625 22.7625 18.7375C22.4208 18.9125 22.0375 19.075 21.6125 19.225C21.1875 19.375 20.65 19.45 20 19.45C19.35 19.45 18.8125 19.375 18.3875 19.225C17.9625 19.075 17.5792 18.9125 17.2375 18.7375C16.8958 18.5625 16.5583 18.4042 16.225 18.2625C15.8917 18.1209 15.4875 18.05 15.0125 18.05C14.5375 18.05 14.1292 18.1209 13.7875 18.2625C13.4458 18.4042 13.1 18.5625 12.75 18.7375C12.4 18.9125 12.0125 19.075 11.5875 19.225C11.1625 19.375 10.6333 19.45 10 19.45ZM10 15V13.05C10.4833 13.05 10.8958 12.975 11.2375 12.825C11.5792 12.675 11.925 12.5125 12.275 12.3375C12.625 12.1625 13.0125 12.0042 13.4375 11.8625C13.8625 11.7209 14.3875 11.65 15.0125 11.65C15.6375 11.65 16.1542 11.7209 16.5625 11.8625C16.9708 12.0042 17.35 12.1625 17.7 12.3375C18.05 12.5125 18.4 12.675 18.75 12.825C19.1 12.975 19.5167 13.05 20 13.05C20.4833 13.05 20.9 12.975 21.25 12.825C21.6 12.675 21.95 12.5125 22.3 12.3375C22.65 12.1625 23.0333 12.0042 23.45 11.8625C23.8667 11.7209 24.3833 11.65 25 11.65C25.6333 11.65 26.1583 11.7209 26.575 11.8625C26.9917 12.0042 27.375 12.1625 27.725 12.3375C28.075 12.5125 28.425 12.675 28.775 12.825C29.125 12.975 29.5333 13.05 30 13.05V15C29.3667 15 28.8375 14.925 28.4125 14.775C27.9875 14.625 27.6 14.4625 27.25 14.2875C26.9 14.1125 26.5583 13.9542 26.225 13.8125C25.8917 13.6709 25.4833 13.6 25 13.6C24.5333 13.6 24.1292 13.6709 23.7875 13.8125C23.4458 13.9542 23.1042 14.1125 22.7625 14.2875C22.4208 14.4625 22.0375 14.625 21.6125 14.775C21.1875 14.925 20.65 15 20 15C19.35 15 18.8125 14.925 18.3875 14.775C17.9625 14.625 17.5792 14.4625 17.2375 14.2875C16.8958 14.1125 16.5583 13.9542 16.225 13.8125C15.8917 13.6709 15.4875 13.6 15.0125 13.6C14.5375 13.6 14.1292 13.6709 13.7875 13.8125C13.4458 13.9542 13.1 14.1125 12.75 14.2875C12.4 14.4625 12.0125 14.625 11.5875 14.775C11.1625 14.925 10.6333 15 10 15Z" fill="#6F5900"/>
</svg>
